<?xml version="1.0" encoding="UTF-8"?>
<!DOCTYPE svg PUBLIC "-//W3C//DTD SVG 1.1//EN" "http://www.w3.org/Graphics/SVG/1.1/DTD/svg11.dtd">
<!-- Creator: CorelDRAW X7 -->
<svg xmlns="http://www.w3.org/2000/svg" xml:space="preserve" width="30px" height="30px" version="1.1" style="shape-rendering:geometricPrecision; text-rendering:geometricPrecision; image-rendering:optimizeQuality; fill-rule:evenodd; clip-rule:evenodd"
viewBox="0 0 8268 11693"
 xmlns:xlink="http://www.w3.org/1999/xlink">
 <defs>
  <style type="text/css">
   <![CDATA[
    .fil1 {fill:#f36562}
    .fil0 {fill:#eb7b5c}
   ]]>
  </style>
 </defs>
 <g id="Layer_x0020_1">
  <metadata id="CorelCorpID_0Corel-Layer"/>
  <g id="_501236736">
   <path class="fil0" d="M3880 1516l2492 0c1188,0 2159,971 2159,2159l0 1116c0,982 -664,1816 -1566,2075l0 -1756c0,-1122 -918,-2040 -2041,-2040l-3116 0c263,-896 1094,-1554 2072,-1554z"/>
   <path class="fil1" d="M1896 3404l2492 0c1187,0 2158,971 2158,2158l0 1116c0,1188 -971,2159 -2158,2159l-879 0 -1629 1341 0 -1341c-1181,-9 -2143,-976 -2143,-2159l0 -1116c0,-1187 971,-2158 2159,-2158zm3070 2302c277,0 501,225 501,502 0,277 -224,501 -501,501 -277,0 -502,-224 -502,-501 0,-277 225,-502 502,-502zm-1708 0c277,0 501,225 501,502 0,277 -224,501 -501,501 -277,0 -502,-224 -502,-501 0,-277 225,-502 502,-502zm-1777 0c277,0 502,225 502,502 0,277 -225,501 -502,501 -277,0 -502,-224 -502,-501 0,-277 225,-502 502,-502z"/>
  </g>
 </g>
</svg>
