<?xml version="1.0" encoding="UTF-8"?>
<!DOCTYPE svg PUBLIC "-//W3C//DTD SVG 1.1//EN" "http://www.w3.org/Graphics/SVG/1.1/DTD/svg11.dtd">
<!-- Creator: CorelDRAW X7 -->
<svg xmlns="http://www.w3.org/2000/svg" xml:space="preserve" width="30px" height="30px" version="1.1" style="shape-rendering:geometricPrecision; text-rendering:geometricPrecision; image-rendering:optimizeQuality; fill-rule:evenodd; clip-rule:evenodd"
viewBox="0 0 8268 11693"
 xmlns:xlink="http://www.w3.org/1999/xlink">
 <defs>
  <style type="text/css">
   <![CDATA[
    .fil1 {fill:#C6CAD3}
    .fil0 {fill:#E8E9EE}
   ]]>
  </style>
 </defs>
 <g id="Layer_x0020_1">
  <metadata id="CorelCorpID_0Corel-Layer"/>
  <g id="_489418952">
   <path class="fil0" d="M1078 2417l579 0 0 5617c0,431 352,783 783,783l3643 0 0 545c0,431 -352,783 -783,783l-4222 0c-431,0 -783,-352 -783,-783l0 -6163c0,-430 352,-782 783,-782z"/>
   <path class="fil1" d="M2968 1548l4222 0c431,0 783,352 783,783l0 4971c0,431 -352,783 -783,783l-4222 0c-431,0 -783,-352 -783,-783l0 -4971c0,-431 352,-783 783,-783zm662 4524l2897 0c73,0 133,60 133,133l0 275c0,74 -60,134 -133,134l-2897 0c-73,0 -133,-60 -133,-134l0 -275c0,-73 60,-133 133,-133zm0 -1120l2897 0c73,0 133,60 133,134l0 275c0,74 -60,134 -133,134l-2897 0c-73,0 -133,-60 -133,-134l0 -275c0,-74 60,-134 133,-134zm0 -1132l2897 0c73,0 133,60 133,134l0 275c0,74 -60,134 -133,134l-2897 0c-73,0 -133,-60 -133,-134l0 -275c0,-74 60,-134 133,-134z"/>
  </g>
 </g>
</svg>
