<?xml version="1.0" encoding="UTF-8"?>
<!DOCTYPE svg PUBLIC "-//W3C//DTD SVG 1.1//EN" "http://www.w3.org/Graphics/SVG/1.1/DTD/svg11.dtd">
<!-- Creator: CorelDRAW X7 -->
<svg xmlns="http://www.w3.org/2000/svg" xml:space="preserve" width="30px" height="30px" version="1.1" style="shape-rendering:geometricPrecision; text-rendering:geometricPrecision; image-rendering:optimizeQuality; fill-rule:evenodd; clip-rule:evenodd"
viewBox="0 0 8268 11693"
 xmlns:xlink="http://www.w3.org/1999/xlink">
 <defs>
  <style type="text/css">
   <![CDATA[
    .fil0 {fill:#f36562}
    .fil1 {fill:#eb7b5c}
   ]]>
  </style>
 </defs>
 <g id="Layer_x0020_1">
  <metadata id="CorelCorpID_0Corel-Layer"/>
  <g id="_501235536">
   <path class="fil0" d="M7567 4767c270,190 447,503 447,856l0 3420c0,575 -470,1046 -1046,1046l-822 0 0 -3500c0,-267 -218,-485 -485,-485l-2966 0c-267,0 -485,218 -485,485l0 3500 -911 0c-575,0 -1046,-471 -1046,-1046l0 -3420c0,-352 177,-665 446,-854l-25 0 3468 -3165 3425 3163 0 0z"/>
   <rect class="fil1" x="3086" y="7105" width="2184" height="2958" rx="269" ry="284"/>
  </g>
 </g>
</svg>
