<?xml version="1.0" encoding="UTF-8"?>
<!DOCTYPE svg PUBLIC "-//W3C//DTD SVG 1.1//EN" "http://www.w3.org/Graphics/SVG/1.1/DTD/svg11.dtd">
<!-- Creator: CorelDRAW X7 -->
<svg xmlns="http://www.w3.org/2000/svg" xml:space="preserve" width="30px" height="30px" version="1.1" style="shape-rendering:geometricPrecision; text-rendering:geometricPrecision; image-rendering:optimizeQuality; fill-rule:evenodd; clip-rule:evenodd"
viewBox="0 0 8268 11693"
 xmlns:xlink="http://www.w3.org/1999/xlink">
 <defs>
  <style type="text/css">
   <![CDATA[
    .fil1 {fill:#f36562}
    .fil0 {fill:#eb7b5c}
   ]]>
  </style>
 </defs>
 <g id="Layer_x0020_1">
  <metadata id="CorelCorpID_0Corel-Layer"/>
  <g id="_491012896">
   <path class="fil0" d="M1105 2446l574 0 0 5569c0,427 349,776 776,776l3611 0 0 541c0,427 -349,776 -776,776l-4185 0c-427,0 -776,-349 -776,-776l0 -6110c0,-427 349,-776 776,-776z"/>
   <path class="fil1" d="M2978 1585l4185 0c427,0 776,349 776,777l0 4928c0,427 -349,776 -776,776l-4185 0c-427,0 -776,-349 -776,-776l0 -4928c0,-428 349,-777 776,-777zm657 4485l2871 0c73,0 132,59 132,132l0 273c0,73 -59,132 -132,132l-2871 0c-73,0 -132,-59 -132,-132l0 -273c0,-73 59,-132 132,-132zm0 -1110l2871 0c73,0 132,60 132,132l0 273c0,73 -59,133 -132,133l-2871 0c-73,0 -132,-60 -132,-133l0 -273c0,-72 59,-132 132,-132zm0 -1122l2871 0c73,0 132,59 132,132l0 273c0,73 -59,132 -132,132l-2871 0c-73,0 -132,-59 -132,-132l0 -273c0,-73 59,-132 132,-132z"/>
  </g>
 </g>
</svg>
