<?xml version="1.0" encoding="UTF-8"?>
<!DOCTYPE svg PUBLIC "-//W3C//DTD SVG 1.1//EN" "http://www.w3.org/Graphics/SVG/1.1/DTD/svg11.dtd">
<!-- Creator: CorelDRAW X7 -->
<svg xmlns="http://www.w3.org/2000/svg" xml:space="preserve" width="30px" height="30px" version="1.1" style="shape-rendering:geometricPrecision; text-rendering:geometricPrecision; image-rendering:optimizeQuality; fill-rule:evenodd; clip-rule:evenodd"
viewBox="0 0 8268 11693"
 xmlns:xlink="http://www.w3.org/1999/xlink">
 <defs>
  <style type="text/css">
   <![CDATA[
    .fil0 {fill:#C6CAD3}
    .fil1 {fill:#E8E9EE}
   ]]>
  </style>
 </defs>
 <g id="Layer_x0020_1">
  <metadata id="CorelCorpID_0Corel-Layer"/>
  <g id="_501240528">
   <path class="fil0" d="M7508 4786c266,186 440,494 440,841l0 3361c0,566 -463,1028 -1028,1028l-808 0 0 -3440c0,-263 -215,-477 -477,-477l-2915 0c-262,0 -477,214 -477,477l0 3440 -895 0c-565,0 -1028,-462 -1028,-1028l0 -3361c0,-346 173,-653 438,-840l-25 0 3409 -3110 3366 3109 0 0z"/>
   <rect class="fil1" x="3104" y="7084" width="2146" height="2907" rx="265" ry="279"/>
  </g>
 </g>
</svg>
