<?xml version="1.0" encoding="UTF-8"?>
<!DOCTYPE svg PUBLIC "-//W3C//DTD SVG 1.1//EN" "http://www.w3.org/Graphics/SVG/1.1/DTD/svg11.dtd">
<!-- Creator: CorelDRAW X7 -->
<svg xmlns="http://www.w3.org/2000/svg" xml:space="preserve" width="30px" height="30px" version="1.1" style="shape-rendering:geometricPrecision; text-rendering:geometricPrecision; image-rendering:optimizeQuality; fill-rule:evenodd; clip-rule:evenodd"
viewBox="0 0 8268 11693"
 xmlns:xlink="http://www.w3.org/1999/xlink">
 <defs>
  <style type="text/css">
   <![CDATA[
    .fil1 {fill:#C6CAD3}
    .fil0 {fill:#E8E9EE}
   ]]>
  </style>
 </defs>
 <g id="Layer_x0020_1">
  <metadata id="CorelCorpID_0Corel-Layer"/>
  <g id="_501233496">
   <path class="fil0" d="M3882 1554l2470 0c1178,0 2140,963 2140,2140l0 1106c0,973 -658,1800 -1552,2057l0 -1740c0,-1113 -910,-2023 -2023,-2023l-3088 0c260,-887 1084,-1540 2053,-1540z"/>
   <path class="fil1" d="M1915 3425l2470 0c1178,0 2140,963 2140,2140l0 1106c0,1177 -962,2140 -2140,2140l-871 0 -1615 1328 0 -1328c-1170,-9 -2123,-968 -2123,-2140l0 -1106c0,-1177 962,-2140 2139,-2140zm3043 2282c275,0 498,223 498,497 0,275 -223,498 -498,498 -274,0 -497,-223 -497,-498 0,-274 223,-497 497,-497zm-1693 0c275,0 498,223 498,497 0,275 -223,498 -498,498 -274,0 -497,-223 -497,-498 0,-274 223,-497 497,-497zm-1760 0c274,0 497,223 497,497 0,275 -223,498 -497,498 -275,0 -498,-223 -498,-498 0,-274 223,-497 498,-497z"/>
  </g>
 </g>
</svg>
